<?xml version="1.0" encoding="UTF-8" standalone="no"?>
<!DOCTYPE svg PUBLIC "-//W3C//DTD SVG 1.1//EN" "http://www.w3.org/Graphics/SVG/1.1/DTD/svg11.dtd">
<svg width="100%" height="100%" viewBox="0 0 200 48" version="1.1" xmlns="http://www.w3.org/2000/svg" xmlns:xlink="http://www.w3.org/1999/xlink" xml:space="preserve" xmlns:serif="http://www.serif.com/" style="fill-rule:evenodd;clip-rule:evenodd;stroke-linejoin:round;stroke-miterlimit:2;">
    <g transform="matrix(1.56805,0,0,1.56805,-60.2692,3.15531)">
        <g transform="matrix(1,0,0,1,4.94593,0)">
            <rect x="38.969" y="4.893" width="2.904" height="16.8" style="fill-rule:nonzero;"/>
        </g>
        <g transform="matrix(1,0,0,1,3.53281,0)">
            <path d="M45.185,21.693L45.185,4.893L50.705,4.893L54.665,19.749L55.049,19.749L55.049,4.893L57.905,4.893L57.905,21.693L52.409,21.693L48.449,6.837L48.041,6.837L48.041,21.693L45.185,21.693Z" style="fill-rule:nonzero;"/>
        </g>
        <g transform="matrix(1,0,0,1,2.82624,0)">
            <path d="M67.001,22.029C65.721,22.029 64.589,21.801 63.605,21.345C62.621,20.889 61.849,20.229 61.289,19.365C60.729,18.501 60.449,17.445 60.449,16.197L60.449,15.573L63.305,15.573L63.305,16.197C63.305,17.301 63.641,18.125 64.313,18.669C64.985,19.213 65.881,19.485 67.001,19.485C68.137,19.485 68.993,19.253 69.569,18.789C70.145,18.325 70.433,17.725 70.433,16.989C70.433,16.493 70.297,16.089 70.025,15.777C69.753,15.465 69.357,15.213 68.837,15.021C68.317,14.829 67.689,14.645 66.953,14.469L66.233,14.325C65.129,14.069 64.173,13.745 63.365,13.353C62.557,12.961 61.937,12.453 61.505,11.829C61.073,11.205 60.857,10.389 60.857,9.381C60.857,8.373 61.097,7.509 61.577,6.789C62.057,6.069 62.737,5.517 63.617,5.133C64.497,4.749 65.529,4.557 66.713,4.557C67.897,4.557 68.953,4.757 69.881,5.157C70.809,5.557 71.541,6.157 72.077,6.957C72.613,7.757 72.881,8.757 72.881,9.957L72.881,10.749L70.025,10.749L70.025,9.957C70.025,9.269 69.889,8.717 69.617,8.301C69.345,7.885 68.961,7.581 68.465,7.389C67.969,7.197 67.385,7.101 66.713,7.101C65.721,7.101 64.969,7.293 64.457,7.677C63.945,8.061 63.689,8.605 63.689,9.309C63.689,9.757 63.805,10.137 64.037,10.449C64.269,10.761 64.613,11.017 65.069,11.217C65.525,11.417 66.097,11.589 66.785,11.733L67.505,11.901C68.657,12.157 69.665,12.481 70.529,12.873C71.393,13.265 72.069,13.781 72.557,14.421C73.045,15.061 73.289,15.893 73.289,16.917C73.289,17.925 73.029,18.813 72.509,19.581C71.989,20.349 71.261,20.949 70.325,21.381C69.389,21.813 68.281,22.029 67.001,22.029Z" style="fill-rule:nonzero;"/>
        </g>
        <g transform="matrix(1,0,0,1,2.11968,0)">
            <rect x="75.809" y="4.893" width="2.904" height="16.8" style="fill-rule:nonzero;"/>
        </g>
        <g transform="matrix(1,0,0,1,1.41312,0)">
            <path d="M81.473,21.693L81.473,19.149L83.729,19.149L83.729,7.437L81.473,7.437L81.473,4.893L104.564,4.893C106.804,4.893 108.516,5.461 109.7,6.597C110.884,7.733 111.476,9.437 111.476,11.709L111.476,14.877C111.476,17.149 110.884,18.853 109.7,19.989C108.516,21.125 106.804,21.693 104.564,21.693L81.473,21.693ZM86.609,19.077L104.588,19.077C105.948,19.077 106.956,18.725 107.612,18.021C108.268,17.317 108.596,16.301 108.596,14.973L108.596,11.637C108.596,10.277 108.268,9.249 107.612,8.553C106.956,7.857 105.948,7.509 104.588,7.509L86.609,7.509L86.609,19.077Z" style="fill-rule:nonzero;"/>
        </g>
        <g transform="matrix(1,0,0,1,16.9575,0)">
            <path d="M97.985,21.693L97.985,4.893L129.18,4.893L129.18,7.509L100.889,7.509L100.889,11.925L128.508,11.925L128.508,14.541L100.889,14.541L100.889,19.077L129.3,19.077L129.3,21.693L97.985,21.693Z" style="fill-rule:nonzero;"/>
        </g>
        <g transform="matrix(1,0,0,1,36.7412,0)">
            <path d="M111.329,21.693L111.329,4.893L118.505,4.893C119.561,4.893 120.481,5.077 121.265,5.445C122.049,5.813 122.661,6.329 123.101,6.993C123.541,7.657 123.761,8.453 123.761,9.381L123.761,9.645C123.761,10.685 123.513,11.517 123.017,12.141C122.521,12.765 121.921,13.221 121.217,13.509L121.217,13.893C121.841,13.925 122.333,14.141 122.693,14.541C123.053,14.941 123.233,15.477 123.233,16.149L123.233,21.693L120.353,21.693L120.353,16.557C120.353,16.157 120.245,15.833 120.029,15.585C119.813,15.337 119.465,15.213 118.985,15.213L114.233,15.213L114.233,21.693L111.329,21.693ZM114.233,12.597L118.217,12.597C119.049,12.597 119.701,12.377 120.173,11.937C120.645,11.497 120.881,10.909 120.881,10.173L120.881,9.957C120.881,9.205 120.649,8.609 120.185,8.169C119.721,7.729 119.065,7.509 118.217,7.509L114.233,7.509L114.233,12.597Z" style="fill-rule:nonzero;"/>
        </g>
    </g>
</svg>
