<?xml version="1.0" encoding="UTF-8" standalone="no"?>
<!DOCTYPE svg PUBLIC "-//W3C//DTD SVG 1.1//EN" "http://www.w3.org/Graphics/SVG/1.1/DTD/svg11.dtd">
<svg width="100%" height="100%" viewBox="0 0 1685 255" version="1.1" xmlns="http://www.w3.org/2000/svg" xmlns:xlink="http://www.w3.org/1999/xlink" xml:space="preserve" xmlns:serif="http://www.serif.com/" style="fill-rule:evenodd;clip-rule:evenodd;stroke-linejoin:round;stroke-miterlimit:2;">
    <g transform="matrix(1,0,0,1,-2160,0)">
        <g id="Page-2" serif:id="Page 2" transform="matrix(1,0,0,1,2160,0)">
            <rect x="0" y="0" width="1684.51" height="254.93" style="fill:none;"/>
            <g id="Layer-1" serif:id="Layer 1">
                <g transform="matrix(1,0,0,1,89.3834,213.724)">
                    <path d="M0,-93.599C-12.857,-93.599 -23.882,-89 -33.076,-79.805C-42.179,-70.702 -46.729,-59.677 -46.729,-46.728C-46.729,-33.779 -42.179,-22.753 -33.076,-13.652C-23.976,-4.55 -12.949,0 0,0C12.949,0 24.02,-4.55 33.217,-13.652C42.317,-22.753 46.87,-33.779 46.87,-46.728C46.87,-59.677 42.317,-70.702 33.217,-79.805C24.02,-89 12.949,-93.599 0,-93.599M0,32.795C-21.865,32.795 -40.584,25.007 -56.159,9.431C-71.736,-6.143 -79.524,-24.864 -79.524,-46.728C-79.524,-68.685 -71.736,-87.452 -56.159,-103.028C-40.584,-118.604 -21.865,-126.394 0,-126.394C22.049,-126.394 37.672,-121.794 46.87,-112.599L46.87,-124.563L79.664,-124.563L79.664,30.825L46.87,30.825L46.87,19.002C37.672,28.199 22.049,32.795 0,32.795" style="fill:white;fill-rule:nonzero;"/>
                </g>
                <g transform="matrix(1,0,0,1,282.773,244.549)">
                    <path d="M0,-157.219L0,-124.424L-8.304,-124.424C-17.125,-124.424 -24.68,-121.279 -30.965,-114.994C-37.252,-108.706 -40.395,-101.104 -40.395,-92.192L-40.395,0L-73.19,0L-73.19,-155.388L-40.395,-155.388L-40.395,-149.759C-30.356,-154.449 -19.659,-156.937 -8.304,-157.219L0,-157.219Z" style="fill:white;fill-rule:nonzero;"/>
                </g>
                <g transform="matrix(1,0,0,1,363.001,87.33)">
                    <path d="M0,159.189C-12.949,159.094 -24.68,156.001 -35.187,149.899C-48.044,142.298 -57.098,129.491 -62.352,111.475L-30.964,102.608C-28.15,112.273 -23.787,118.747 -17.875,122.032C-12.716,124.846 -6.709,126.301 0.141,126.394C0.985,126.394 1.922,126.348 2.956,126.253C3.988,126.161 5.019,126.02 6.052,125.832C8.868,125.363 11.353,124.659 13.512,123.72C19.047,121.001 22.05,116.542 22.52,110.348C22.707,107.723 21.863,105.422 19.987,103.453C16.327,99.043 9.899,96.555 0.704,95.992C-22.192,94.492 -38.8,88.532 -49.122,78.118C-53.439,73.801 -56.489,68.922 -58.27,63.479C-59.772,59.256 -60.522,54.751 -60.522,49.967C-60.522,34.393 -54.424,21.866 -42.225,12.388C-31.528,4.131 -18.673,0 -3.659,0C14.167,0 29.087,6.335 41.099,19.002C47.666,26.134 52.874,34.674 56.723,44.618L26.18,55.879L21.957,47.997C20.642,45.652 19.094,43.542 17.312,41.663C11.588,35.752 4.504,32.795 -3.94,32.795C-5.537,32.891 -6.945,33.031 -8.163,33.217C-10.979,33.594 -13.748,34.298 -16.468,35.33C-23.976,38.238 -27.728,43.12 -27.728,49.967C-27.728,53.626 -24.961,56.63 -19.423,58.975C-13.982,61.134 -6.523,62.542 2.956,63.197C13.09,63.854 22.05,66.153 29.839,70.094C35.751,73.191 40.818,77.086 45.04,81.777C52.733,90.879 56.111,101.249 55.174,112.882C54.048,127.896 47.666,139.625 36.032,148.07C25.99,155.484 14.027,159.189 0.141,159.189L0,159.189Z" style="fill:white;fill-rule:nonzero;"/>
                </g>
                <g transform="matrix(1,0,0,1,521.345,213.724)">
                    <path d="M0,-93.599C-12.856,-93.599 -23.881,-89 -33.076,-79.805C-42.179,-70.702 -46.729,-59.677 -46.729,-46.728C-46.729,-33.779 -42.179,-22.753 -33.076,-13.652C-23.976,-4.55 -12.949,0 0,0C12.949,0 24.02,-4.55 33.217,-13.652C42.317,-22.753 46.87,-33.779 46.87,-46.728C46.87,-59.677 42.317,-70.702 33.217,-79.805C24.02,-89 12.949,-93.599 0,-93.599M0,32.795C-21.865,32.795 -40.584,25.007 -56.159,9.431C-71.736,-6.143 -79.524,-24.864 -79.524,-46.728C-79.524,-68.685 -71.736,-87.452 -56.159,-103.028C-40.584,-118.604 -21.865,-126.394 0,-126.394C22.049,-126.394 37.672,-121.794 46.87,-112.599L46.87,-124.563L79.664,-124.563L79.664,30.825L46.87,30.825L46.87,19.002C37.672,28.199 22.049,32.795 0,32.795" style="fill:white;fill-rule:nonzero;"/>
                </g>
                <g transform="matrix(1,0,0,1,771.457,87.1442)">
                    <path d="M0,157.405L-32.794,157.405L-32.794,65.213C-32.794,56.301 -35.939,48.699 -42.224,42.411C-48.512,36.126 -56.066,32.981 -64.885,32.981C-73.801,32.981 -81.401,36.126 -87.687,42.411C-93.974,48.699 -97.117,56.301 -97.117,65.213L-97.117,157.405L-129.912,157.405L-129.912,2.017L-97.117,2.017L-97.117,8.35C-86.982,2.72 -76.24,0 -64.885,0.186C-47.059,0.186 -31.809,6.568 -19.142,19.328C-6.381,31.995 0,47.292 0,65.213L0,157.405Z" style="fill:white;fill-rule:nonzero;"/>
                </g>
                <g transform="matrix(1,0,0,1,881.241,213.724)">
                    <path d="M0,-93.599C-12.856,-93.599 -23.881,-89 -33.076,-79.805C-42.178,-70.702 -46.729,-59.677 -46.729,-46.728C-46.729,-33.779 -42.178,-22.753 -33.076,-13.652C-23.976,-4.55 -12.948,0 0,0C12.948,0 24.02,-4.55 33.217,-13.652C42.317,-22.753 46.87,-33.779 46.87,-46.728C46.87,-59.677 42.317,-70.702 33.217,-79.805C24.02,-89 12.948,-93.599 0,-93.599M0,32.795C-21.864,32.795 -40.584,25.007 -56.159,9.431C-71.735,-6.143 -79.523,-24.864 -79.523,-46.728C-79.523,-68.685 -71.735,-87.452 -56.159,-103.028C-40.584,-118.604 -21.864,-126.394 0,-126.394C22.05,-126.394 37.672,-121.794 46.87,-112.599L46.87,-124.563L79.664,-124.563L79.664,30.825L46.87,30.825L46.87,19.002C37.672,28.199 22.05,32.795 0,32.795" style="fill:white;fill-rule:nonzero;"/>
                </g>
                <g transform="matrix(1,0,0,1,1131.35,87.1442)">
                    <path d="M0,157.405L-32.795,157.405L-32.795,65.213C-32.795,56.301 -35.94,48.699 -42.225,42.411C-48.513,36.126 -56.066,32.981 -64.886,32.981C-73.801,32.981 -81.402,36.126 -87.687,42.411C-93.975,48.699 -97.117,56.301 -97.117,65.213L-97.117,157.405L-129.912,157.405L-129.912,2.017L-97.117,2.017L-97.117,8.35C-86.983,2.72 -76.24,0 -64.886,0.186C-47.06,0.186 -31.81,6.568 -19.143,19.328C-6.382,31.995 0,47.292 0,65.213L0,157.405Z" style="fill:white;fill-rule:nonzero;"/>
                </g>
                <g transform="matrix(1,0,0,1,1241.28,136.074)">
                    <path d="M0,-15.808C-12.948,-15.808 -24.021,-11.255 -33.217,-2.154C-42.319,6.948 -46.869,17.974 -46.869,30.922C-46.869,43.871 -42.319,54.898 -33.217,63.998C-24.021,73.101 -12.948,77.65 0,77.65C12.949,77.65 23.974,73.101 33.076,63.998C42.178,54.898 46.73,43.871 46.73,30.922C46.73,17.974 42.178,6.948 33.076,-2.154C23.974,-11.255 12.949,-15.808 0,-15.808M0,110.586C-21.957,110.586 -40.725,102.753 -56.3,87.081C-71.876,71.507 -79.664,52.786 -79.664,30.922C-79.664,9.06 -71.876,-9.661 -56.3,-25.237C-40.725,-40.908 -21.957,-48.744 0,-48.744C19.517,-49.025 35.093,-44.379 46.73,-34.808L46.82,-126.394L79.524,-126.394L79.524,108.476L46.73,108.476L46.73,96.652C37.628,105.942 22.05,110.586 0,110.586" style="fill:white;fill-rule:nonzero;"/>
                </g>
                <g transform="matrix(1,0,0,1,1596.39,213.724)">
                    <path d="M0,-93.599C-12.855,-93.599 -23.881,-89 -33.076,-79.805C-42.179,-70.702 -46.729,-59.677 -46.729,-46.728C-46.729,-33.779 -42.179,-22.753 -33.076,-13.652C-23.975,-4.55 -12.948,0 0,0C12.95,0 24.021,-4.55 33.219,-13.652C42.318,-22.753 46.871,-33.779 46.871,-46.728C46.871,-59.677 42.318,-70.702 33.219,-79.805C24.021,-89 12.95,-93.599 0,-93.599M0,32.795C-21.864,32.795 -40.584,25.007 -56.159,9.431C-71.735,-6.143 -79.523,-24.864 -79.523,-46.728C-79.523,-68.685 -71.735,-87.452 -56.159,-103.028C-40.584,-118.604 -21.864,-126.394 0,-126.394C22.05,-126.394 37.674,-121.794 46.871,-112.599L46.871,-124.563L79.666,-124.563L79.666,30.825L46.871,30.825L46.871,19.002C37.674,28.199 22.05,32.795 0,32.795" style="fill:white;fill-rule:nonzero;"/>
                </g>
                <g transform="matrix(1,0,0,1,1356.7,75.5312)">
                    <path d="M0,169.018L32.794,169.018L32.794,76.685C32.794,67.772 35.891,60.218 42.084,54.024C48.369,47.739 55.97,44.594 64.886,44.594C73.798,44.594 81.398,47.739 87.687,54.024C93.879,60.218 96.977,67.772 96.977,76.685L96.977,169.018L129.771,169.018L129.771,76.685C129.771,58.859 123.437,43.562 110.77,30.801C98.008,18.133 82.712,11.799 64.886,11.799C53.717,11.613 43.02,14.381 32.794,20.103L32.79,0L0,0L0,169.018Z" style="fill:white;fill-rule:nonzero;"/>
                </g>
                <g transform="matrix(-1,0,0,1,1356.7,42.4621)">
                    <rect x="-32.769" y="-32.783" width="32.776" height="32.783" style="fill:white;"/>
                </g>
                <g transform="matrix(1,0,0,1,0,-136.662)">
                    <rect x="928.033" y="179.399" width="428.662" height="32.794" style="fill:white;"/>
                </g>
                <g transform="matrix(-1,0,0,1,1389.48,75.5307)">
                    <rect x="-286.578" y="-32.794" width="286.571" height="32.794" style="fill:white;"/>
                </g>
            </g>
        </g>
    </g>
</svg>
